# xmcd
#
# Track frame offsets:
#	150
#	10985
#	21345
#	31752
#	40287
#	51220
#	66347
#	78722
#	89380
#
# Disc length: 1360 seconds
#
# Revision: 2
# Processed by: cddbd v1.5.1PL2 Copyright (c) Steve Scherf et al.
# Submitted via: audiograbber 1.83.01
#
DISCID=71054e09
DTITLE=Various Artist - Blues Volume 1
DYEAR=1900
DGENRE=
TTITLE0=Shirley and Lee - Let the Good Times Roll
TTITLE1=Carl Perkins - Blue Suede Shoes
TTITLE2=Fats Domino - Blue Monday
TTITLE3=Jerry Lee Lewis - Great Balls of Fire
TTITLE4=The Fleetwoods - Mr. Blue
TTITLE5=Peggy Lee - Fever
TTITLE6=John Lee Hooker - Blue Bird Blues
TTITLE7=Fats Domino - Blueberry Hill
TTITLE8=Carl Perkins - Boppin' the Blues
EXTD=
EXTT0=Shirley and Lee
EXTT1=Carl Perkins
EXTT2=Fats Domino
EXTT3=Jerry Lee Lewis
EXTT4=The Fleetwoods
EXTT5=Peggy Lee
EXTT6=John Lee Hooker
EXTT7=Fats Domino
EXTT8=Carl Perkins
PLAYORDER=
